<?xml version="1.0" encoding="UTF-8"?>
<svg width="20px" height="16px" viewBox="0 0 20 16" version="1.1" xmlns="http://www.w3.org/2000/svg" xmlns:xlink="http://www.w3.org/1999/xlink">
    <!-- Generator: Sketch 42 (36781) - http://www.bohemiancoding.com/sketch -->
    <title>Combined Shape</title>
    <desc>Created with Sketch.</desc>
    <defs>
        <linearGradient x1="14.590858%" y1="81.8643602%" x2="85.8575677%" y2="15.3797674%" id="linearGradient-1">
            <stop stop-color="#BAC4CE" offset="0%"></stop>
            <stop stop-color="#909FB2" offset="100%"></stop>
        </linearGradient>
        <path d="M0,1.99406028 C0,0.892771196 0.898212381,0 1.99079514,0 L18.0092049,0 C19.1086907,0 20,0.894513756 20,1.99406028 L20,14.0059397 C20,15.1072288 19.1017876,16 18.0092049,16 L1.99079514,16 C0.891309342,16 0,15.1054862 0,14.0059397 L0,1.99406028 Z M1,2.00684547 L1,13.9931545 C1,14.5500512 1.44475929,15 1.99339768,15 L18.0066023,15 C18.5550537,15 19,14.5492199 19,13.9931545 L19,2.00684547 C19,1.44994876 18.5552407,1 18.0066023,1 L1.99339768,1 C1.44494629,1 1,1.45078007 1,2.00684547 Z M6,4.99703014 C6,4.4463856 6.44386482,4 7,4 C7.55228475,4 8,4.45303631 8,4.99703014 L8,11.0029699 C8,11.5536144 7.55613518,12 7,12 C6.44771525,12 6,11.5469637 6,11.0029699 L6,4.99703014 Z M9,9.0093689 C9,8.45190985 9.44386482,8 10,8 C10.5522847,8 11,8.44335318 11,9.0093689 L11,10.9906311 C11,11.5480902 10.5561352,12 10,12 C9.44771525,12 9,11.5566468 9,10.9906311 L9,9.0093689 Z M12,6.00292933 C12,5.44902676 12.4438648,5 13,5 C13.5522847,5 14,5.43788135 14,6.00292933 L14,10.9970707 C14,11.5509732 13.5561352,12 13,12 C12.4477153,12 12,11.5621186 12,10.9970707 L12,6.00292933 Z M3,6.99077797 C3,6.44358641 3.44386482,6 4,6 C4.55228475,6 5,6.45097518 5,6.99077797 L5,11.009222 C5,11.5564136 4.55613518,12 4,12 C3.44771525,12 3,11.5490248 3,11.009222 L3,6.99077797 Z M15,7.99980749 C15,7.44762906 15.4438648,7 16,7 C16.5522847,7 17,7.44371665 17,7.99980749 L17,11.0001925 C17,11.5523709 16.5561352,12 16,12 C15.4477153,12 15,11.5562834 15,11.0001925 L15,7.99980749 Z" id="path-2"></path>
    </defs>
    <g id="Page-1" stroke="none" stroke-width="1" fill="none" fill-rule="evenodd">
        <g id="UI-Kit-Elements" transform="translate(-125.000000, -8007.000000)">
            <g id="Group-27" transform="translate(40.000000, 1497.000000)">
                <g id="Badge-Copy-3" transform="translate(0.000000, 5336.000000)">
                    <g id="Group-29" transform="translate(80.000000, 254.000000)">
                        <g id="dashboard-normal3" transform="translate(5.000000, 920.000000)">
                            <mask id="mask-3" fill="white">
                                <use xlink:href="#path-2"></use>
                            </mask>
                            <use id="Combined-Shape" fill="url(#linearGradient-1)" xlink:href="#path-2"></use>
                        </g>
                    </g>
                </g>
            </g>
        </g>
    </g>
</svg>